<svg width="166.3935546875px" height="121.60000610351562px" xmlns="http://www.w3.org/2000/svg" viewBox="166.80322265625 14.199996948242188 166.3935546875 121.60000610351562" style="background: rgba(0, 0, 0, 0);" preserveAspectRatio="xMidYMid"><defs><filter id="editing-extrude-glow"><feFlood flood-color="#333333" result="flood-1"></feFlood><feMorphology operator="erode" radius="1" in="SourceAlpha" result="erode"></feMorphology><feComposite operator="in" in="flood-1" in2="erode" result="comp1"></feComposite><feConvolveMatrix order="3,3" divisor="1" in="comp1" result="convolve" kernelMatrix="0 0 0 1 1 1 0 0 0"></feConvolveMatrix><feOffset dx="-3" dy="0" in="convolve" result="extrude"></feOffset><feComposite operator="in" in="flood-1" in2="extrude" result="comp-extrude"></feComposite><feFlood flood-color="#000000" result="flood-2"></feFlood><feComposite operator="in" in="flood-2" in2="SourceAlpha" result="comp2"></feComposite><feMorphology operator="dilate" radius="1" in="comp2" result="dilate"></feMorphology><feOffset dx="-4.5" dy="0" in="dilate" result="offset"></feOffset><feGaussianBlur in="offset" stdDeviation="5.8" result="blur"></feGaussianBlur><feComponentTransfer in="blur" result="shadow"><feFuncA type="linear" slope="0.8" intercept="-0.2"></feFuncA></feComponentTransfer><feMerge><feMergeNode in="shadow"></feMergeNode><feMergeNode in="comp-extrude"></feMergeNode><feMergeNode in="SourceGraphic"></feMergeNode></feMerge></filter></defs><g filter="url(#editing-extrude-glow)"><g transform="translate(198.92814826965332, 97.39999580383301)"><path d="M29.18 1.28L29.18 1.28L29.18 1.28Q20.99 1.28 20.22-10.37L20.22-10.37L9.22-10.37L9.22-10.37Q7.94-7.42 7.04-4.86L7.04-4.86L5.38 0L-3.58 0L16.58-42.24L30.34-42.24L33.02-11.14L33.02-11.14Q33.66-4.42 36.22-2.43L36.22-2.43L36.22-2.43Q34.37 1.28 29.18 1.28ZM14.72-23.17L11.20-15.04L20.03-15.04L19.26-31.49L19.26-33.22L14.72-23.17ZM53.18 0L39.23 0L47.36-42.24L61.44-42.24L53.18 0ZM96.26-13.25L96.26-13.25L96.26-13.25Q97.92-12.03 97.92-9.44L97.92-9.44L97.92-9.44Q97.92-6.85 96.80-5.02L96.80-5.02L96.80-5.02Q95.68-3.20 93.50-1.79L93.50-1.79L93.50-1.79Q88.83 1.22 80.67 1.22L80.67 1.22L80.67 1.22Q72.51 1.22 68.06-3.04L68.06-3.04L68.06-3.04Q63.62-7.30 63.62-14.85L63.62-14.85L63.62-14.85Q63.62-25.54 69.18-33.66L69.18-33.66L69.18-33.66Q73.41-39.68 80.96-42.24L80.96-42.24L80.96-42.24Q84.86-43.52 88.70-43.52L88.70-43.52L88.70-43.52Q92.54-43.52 94.91-43.01L94.91-43.01L94.91-43.01Q97.28-42.50 99.07-41.47L99.07-41.47L99.07-41.47Q102.98-39.23 102.98-35.65L102.98-35.65L102.98-35.65Q102.98-32.38 99.90-29.95L99.90-29.95L99.90-29.95Q97.09-27.78 94.78-27.78L94.78-27.78L94.78-27.78Q92.48-27.78 91.52-28.10L91.52-28.10L91.52-28.10Q91.78-30.40 91.78-31.90L91.78-31.90L91.78-31.90Q91.78-33.41 91.71-34.50L91.71-34.50L91.71-34.50Q91.65-35.58 91.33-36.61L91.33-36.61L91.33-36.61Q90.69-38.98 88.74-38.98L88.74-38.98L88.74-38.98Q86.78-38.98 84.83-37.15L84.83-37.15L84.83-37.15Q82.88-35.33 81.22-32.26L81.22-32.26L81.22-32.26Q77.44-25.28 77.44-17.02L77.44-17.02L77.44-17.02Q77.44-13.06 79.68-10.78L79.68-10.78L79.68-10.78Q81.92-8.51 86.72-8.51L86.72-8.51L86.72-8.51Q90.30-8.51 93.70-10.88L93.70-10.88L93.70-10.88Q95.17-11.90 96.26-13.25Z" fill="#eb6c6c"></path></g></g><style>text {
  font-size: 64px;
  font-family: Arial Black;
  dominant-baseline: central;
  text-anchor: middle;
}</style></svg>