<svg width="706.9499755859375px" height="121.60000610351562px" xmlns="http://www.w3.org/2000/svg" viewBox="-103.47498779296876 14.199996948242188 706.9499755859375 121.60000610351562" style="background:#f2eddb" preserveAspectRatio="xMidYMid"><defs><filter id="editing-vintage" x="-100%" y="-100%" width="300%" height="300%"><feConvolveMatrix in="SourceGraphic" result="extrude" order="9,9" divisor="1" kernelMatrix="1,0,0,0,0,0,0,0,0,0,1,0,0,0,0,0,0,0,0,0,1,0,0,0,0,0,0,0,0,0,1,0,0,0,0,0,0,0,0,0,1,0,0,0,0,0,0,0,0,0,1,0,0,0,0,0,0,0,0,0,1,0,0,0,0,0,0,0,0,0,1,0,0,0,0,0,0,0,0,0,1"> </feConvolveMatrix><feFlood flood-color="#900" result="flood-extrude"></feFlood><feComposite operator="in" in="flood-extrude" in2="extrude" result="extrude-color"></feComposite><feOffset dx="5" dy="5" in="extrude-color" result="extrude-offset"></feOffset><feColorMatrix in="SourceGraphic" result="stroke" type="matrix" values="0 0 0 0 0 0 0 0 0 0 0 0 0 0 0 0 1 0 0 0 "></feColorMatrix><feColorMatrix in="SourceGraphic" result="fill" type="matrix" values="0 0 0 0 0 0 0 0 0 0 0 0 0 0 0 1 0 0 1 0 "></feColorMatrix><feConvolveMatrix in="stroke" result="inner-shadow" order="5,5" divisor="1" kernelMatrix="1 0 0 0 0 0 1 0 0 0 0 0 1 0 0 0 0 0 1 0 0 0 0 0 1 "></feConvolveMatrix><feOffset dx="1" dy="1" in="inner-shadow" result="offset"></feOffset><feComposite operator="in" in="offset" in2="SourceAlpha" result="comp"></feComposite><feFlood flood-color="#000" result="flood3"></feFlood><feComposite operator="in" in="flood3" in2="comp" result="comp2"></feComposite><feColorMatrix in="comp2" result="comp3" type="matrix" values="1 0 0 0 0 0 1 0 0 0 0 0 1 0 0 0 0 0 0.5 0 "></feColorMatrix><feFlood flood-color="#f00" result="flood1"></feFlood><feComposite operator="in" in="flood1" in2="fill" result="fill2"></feComposite><feFlood flood-color="#fff" result="flood2"></feFlood><feComposite operator="in" in="flood2" in2="stroke" result="stroke2"></feComposite><feMerge result="obj"><feMergeNode in="extrude-offset"></feMergeNode><feMergeNode in="fill2"></feMergeNode><feMergeNode in="comp3"></feMergeNode></feMerge><feConvolveMatrix in="SourceAlpha" result="shadow" order="9,9" divisor="1" kernelMatrix="1,0,0,0,0,0,0,0,0,0,1,0,0,0,0,0,0,0,0,0,1,0,0,0,0,0,0,0,0,0,1,0,0,0,0,0,0,0,0,0,1,0,0,0,0,0,0,0,0,0,1,0,0,0,0,0,0,0,0,0,1,0,0,0,0,0,0,0,0,0,1,0,0,0,0,0,0,0,0,0,1"></feConvolveMatrix><feOffset dx="15" dy="15" in="shadow" result="shadow-offset"></feOffset><feFlood flood-color="#444" result="flood-shadow"></feFlood><feComposite operator="in" in="flood-shadow" in2="shadow-offset" result="shadow-color"></feComposite><feMerge><feMergeNode in="shadow-color"></feMergeNode><feMergeNode in="obj"></feMergeNode></feMerge></filter></defs><g transform="translate(-9,-9)"><g filter="url(#editing-vintage)"><g transform="translate(-0.12382936477661133, 104.43999671936035)"><path d="M29.18 1.28L29.18 1.28L29.18 1.28Q20.99 1.28 20.22-10.37L20.22-10.37L9.22-10.37L9.22-10.37Q7.94-7.42 7.04-4.86L7.04-4.86L5.38 0L-3.58 0L16.58-42.24L30.34-42.24L33.02-11.14L33.02-11.14Q33.66-4.42 36.22-2.43L36.22-2.43L36.22-2.43Q34.37 1.28 29.18 1.28ZM14.72-23.17L11.20-15.04L20.03-15.04L19.26-31.49L19.26-33.22L14.72-23.17ZM55.23-3.52L55.23-3.52L55.23-3.52Q53.25 1.28 46.91 1.28L46.91 1.28L46.91 1.28Q43.71 1.28 41.66-0.96L41.66-0.96L41.66-0.96Q40-2.82 40-4.93L40-4.93L40-4.93Q40-9.73 42.24-20.22L42.24-20.22L46.91-44.80L59.90-46.08L53.70-13.70L53.70-13.70Q52.61-8.96 52.61-7.30L52.61-7.30L52.61-7.30Q52.61-3.65 55.23-3.52ZM75.97-3.52L75.97-3.52L75.97-3.52Q73.98 1.28 67.65 1.28L67.65 1.28L67.65 1.28Q64.45 1.28 62.40-0.96L62.40-0.96L62.40-0.96Q60.74-2.82 60.74-4.93L60.74-4.93L60.74-4.93Q60.74-9.73 62.98-20.22L62.98-20.22L67.65-44.80L80.64-46.08L74.43-13.70L74.43-13.70Q73.34-8.96 73.34-7.30L73.34-7.30L73.34-7.30Q73.34-3.65 75.97-3.52ZM107.84 0L93.89 0L102.02-42.24L116.10-42.24L107.84 0ZM144.58 1.28L144.58 1.28L144.58 1.28Q136.83 1.28 136.83-4.74L136.83-4.74L136.83-4.74Q136.90-6.40 137.41-9.22L137.41-9.22L138.56-15.10L138.56-15.10Q140.29-23.42 140.29-25.28L140.29-25.28L140.29-25.28Q140.29-28.99 138.11-28.99L138.11-28.99L138.11-28.99Q134.46-28.99 132.54-19.46L132.54-19.46L128.77 0L115.90 1.28L122.56-32.70L133.06-33.92L132.03-27.65L132.03-27.65Q135.04-33.92 144.26-33.92L144.26-33.92L144.26-33.92Q148.74-33.92 150.62-32.03L150.62-32.03L150.62-32.03Q152.51-30.14 152.51-25.92L152.51-25.92L152.51-25.92Q152.51-21.95 150.46-12.67L150.46-12.67L150.46-12.67Q149.50-8.51 149.50-6.94L149.50-6.94L149.50-6.94Q149.50-5.38 150.37-4.48L150.37-4.48L150.37-4.48Q151.23-3.58 152.51-3.46L152.51-3.46L152.51-3.46Q151.87-1.28 149.66 0L149.66 0L149.66 0Q147.46 1.28 144.58 1.28ZM204.22-13.25L204.22-13.25L204.22-13.25Q205.89-12.03 205.89-9.44L205.89-9.44L205.89-9.44Q205.89-6.85 204.77-5.02L204.77-5.02L204.77-5.02Q203.65-3.20 201.47-1.79L201.47-1.79L201.47-1.79Q196.80 1.22 188.64 1.22L188.64 1.22L188.64 1.22Q180.48 1.22 176.03-3.04L176.03-3.04L176.03-3.04Q171.58-7.30 171.58-14.85L171.58-14.85L171.58-14.85Q171.58-25.54 177.15-33.66L177.15-33.66L177.15-33.66Q181.38-39.68 188.93-42.24L188.93-42.24L188.93-42.24Q192.83-43.52 196.67-43.52L196.67-43.52L196.67-43.52Q200.51-43.52 202.88-43.01L202.88-43.01L202.88-43.01Q205.25-42.50 207.04-41.47L207.04-41.47L207.04-41.47Q210.94-39.23 210.94-35.65L210.94-35.65L210.94-35.65Q210.94-32.38 207.87-29.95L207.87-29.95L207.87-29.95Q205.06-27.78 202.75-27.78L202.75-27.78L202.75-27.78Q200.45-27.78 199.49-28.10L199.49-28.10L199.49-28.10Q199.74-30.40 199.74-31.90L199.74-31.90L199.74-31.90Q199.74-33.41 199.68-34.50L199.68-34.50L199.68-34.50Q199.62-35.58 199.30-36.61L199.30-36.61L199.30-36.61Q198.66-38.98 196.70-38.98L196.70-38.98L196.70-38.98Q194.75-38.98 192.80-37.15L192.80-37.15L192.80-37.15Q190.85-35.33 189.18-32.26L189.18-32.26L189.18-32.26Q185.41-25.28 185.41-17.02L185.41-17.02L185.41-17.02Q185.41-13.06 187.65-10.78L187.65-10.78L187.65-10.78Q189.89-8.51 194.69-8.51L194.69-8.51L194.69-8.51Q198.27-8.51 201.66-10.88L201.66-10.88L201.66-10.88Q203.14-11.90 204.22-13.25ZM213.98-1.92L213.98-1.92L213.98-1.92Q212.48-3.58 211.81-6.21L211.81-6.21L211.81-6.21Q211.14-8.83 211.14-13.12L211.14-13.12L211.14-13.12Q211.14-17.41 212.61-21.31L212.61-21.31L212.61-21.31Q214.08-25.22 216.77-28.03L216.77-28.03L216.77-28.03Q222.27-33.92 231.36-33.92L231.36-33.92L231.36-33.92Q234.62-33.92 236.99-32.83L236.99-32.83L247.94-33.92L243.20-8.96L243.20-8.96Q243.01-8.19 243.01-6.78L243.01-6.78L243.01-6.78Q243.01-5.38 243.87-4.48L243.87-4.48L243.87-4.48Q244.74-3.58 246.02-3.46L246.02-3.46L246.02-3.46Q245.38-1.28 243.04 0L243.04 0L243.04 0Q240.70 1.28 238.08 1.28L238.08 1.28L238.08 1.28Q235.46 1.28 233.70 0.29L233.70 0.29L233.70 0.29Q231.94-0.70 231.42-2.37L231.42-2.37L231.42-2.37Q230.40-0.77 228.22 0.26L228.22 0.26L228.22 0.26Q226.05 1.28 223.14 1.28L223.14 1.28L223.14 1.28Q220.22 1.28 217.86 0.51L217.86 0.51L217.86 0.51Q215.49-0.26 213.98-1.92ZM227.49-27.90L227.49-27.90L227.49-27.90Q226.75-26.75 226.11-24.80L226.11-24.80L226.11-24.80Q225.47-22.85 224.42-17.63L224.42-17.63L224.42-17.63Q223.36-12.42 223.36-8.70L223.36-8.70L223.36-8.70Q223.36-4.99 223.94-3.90L223.94-3.90L223.94-3.90Q224.51-2.82 225.54-2.82L225.54-2.82L225.54-2.82Q227.58-2.82 229.09-4.77L229.09-4.77L229.09-4.77Q230.59-6.72 231.17-10.18L231.17-10.18L234.56-28.93L234.56-28.93Q233.22-30.08 231.65-30.08L231.65-30.08L231.65-30.08Q230.08-30.08 229.15-29.57L229.15-29.57L229.15-29.57Q228.22-29.06 227.49-27.90ZM297.47 1.28L297.47 1.28L297.47 1.28Q289.73 1.28 289.73-4.74L289.73-4.74L289.73-4.74Q289.73-7.36 290.85-12.45L290.85-12.45L290.85-12.45Q291.97-17.54 292.35-19.58L292.35-19.58L292.35-19.58Q293.25-24.26 293.25-25.73L293.25-25.73L293.25-25.73Q293.25-28.99 290.82-28.99L290.82-28.99L290.82-28.99Q289.22-28.99 287.68-26.78L287.68-26.78L287.68-26.78Q286.14-24.58 285.44-20.16L285.44-20.16L281.47 0L268.99 1.28L272.45-16.13L272.45-16.13Q273.02-19.01 273.54-22.27L273.54-22.27L273.54-22.27Q274.05-25.54 274.05-26.05L274.05-26.05L274.05-26.05Q274.05-28.99 271.87-28.99L271.87-28.99L271.87-28.99Q270.40-28.99 268.80-26.82L268.80-26.82L268.80-26.82Q267.20-24.64 266.30-20.16L266.30-20.16L262.40 0L249.79 1.28L256.51-32.64L266.94-33.92L265.86-27.46L265.86-27.46Q267.52-30.91 270.59-32.42L270.59-32.42L270.59-32.42Q273.66-33.92 278.46-33.92L278.46-33.92L278.46-33.92Q281.22-33.92 283.01-32.58L283.01-32.58L283.01-32.58Q284.80-31.23 285.38-29.06L285.38-29.06L285.38-29.06Q286.46-31.30 289.25-32.61L289.25-32.61L289.25-32.61Q292.03-33.92 295.46-33.92L295.46-33.92L295.46-33.92Q298.88-33.92 300.58-33.18L300.58-33.18L300.58-33.18Q302.27-32.45 303.30-31.23L303.30-31.23L303.30-31.23Q305.02-28.99 305.02-24.90L305.02-24.90L305.02-24.90Q305.02-20.86 303.30-12.48L303.30-12.48L303.30-12.48Q302.40-8.38 302.40-6.88L302.40-6.88L302.40-6.88Q302.40-5.38 303.26-4.48L303.26-4.48L303.26-4.48Q304.13-3.58 305.41-3.46L305.41-3.46L305.41-3.46Q304.77-1.28 302.56 0L302.56 0L302.56 0Q300.35 1.28 297.47 1.28ZM340.16-4.38L340.16-4.38L340.16-4.38Q337.47-1.66 333.79-0.19L333.79-0.19L333.79-0.19Q330.11 1.28 326.46 1.28L326.46 1.28L326.46 1.28Q322.82 1.28 321.54 0.64L321.54 0.64L319.55 11.52L306.56 12.80L315.39-32.64L325.82-33.73L324.99-29.31L324.99-29.31Q327.68-33.86 333.25-33.86L333.25-33.86L333.25-33.86Q339.52-33.86 342.85-29.82L342.85-29.82L342.85-29.82Q345.79-26.18 345.79-20.61L345.79-20.61L345.79-20.61Q345.79-15.04 344.32-11.07L344.32-11.07L344.32-11.07Q342.85-7.10 340.16-4.38ZM325.70-22.34L322.30-3.58L322.30-3.58Q323.65-2.43 325.31-2.43L325.31-2.43L325.31-2.43Q326.98-2.43 327.94-3.07L327.94-3.07L327.94-3.07Q328.90-3.71 329.60-4.99L329.60-4.99L329.60-4.99Q331.52-8.45 333.06-18.94L333.06-18.94L333.06-18.94Q333.50-22.02 333.50-25.02L333.50-25.02L333.50-25.02Q333.50-28.03 332.83-28.99L332.83-28.99L332.83-28.99Q332.16-29.95 330.88-29.95L330.88-29.95L330.88-29.95Q326.98-29.95 325.70-22.34L325.70-22.34ZM368.77-22.46L368.77-22.46L368.77-22.46Q369.66-24.83 369.66-26.88L369.66-26.88L369.66-26.88Q369.66-30.66 366.59-30.66L366.59-30.66L366.59-30.66Q364.99-30.66 363.68-29.22L363.68-29.22L363.68-29.22Q362.37-27.78 362.37-25.98L362.37-25.98L362.37-25.98Q362.37-24.70 363.39-23.68L363.39-23.68L363.39-23.68Q364.86-22.27 368.64-19.97L368.64-19.97L368.64-19.97Q372.42-17.66 373.86-15.78L373.86-15.78L373.86-15.78Q375.30-13.89 375.30-11.30L375.30-11.30L375.30-11.30Q375.30-8.70 374.05-6.34L374.05-6.34L374.05-6.34Q372.80-3.97 370.56-2.30L370.56-2.30L370.56-2.30Q365.76 1.28 358.08 1.28L358.08 1.28L358.08 1.28Q353.92 1.28 350.72-0.90L350.72-0.90L350.72-0.90Q347.52-3.01 347.52-5.50L347.52-5.50L347.52-5.50Q347.52-8 349.34-9.47L349.34-9.47L349.34-9.47Q351.17-10.94 353.86-10.94L353.86-10.94L353.86-10.94Q356.54-10.94 358.21-9.92L358.21-9.92L358.21-9.92Q357.38-7.81 357.38-6.40L357.38-6.40L357.38-6.40Q357.38-2.18 360.96-2.18L360.96-2.18L360.96-2.18Q362.50-2.18 363.52-3.14L363.52-3.14L363.52-3.14Q364.54-4.10 364.54-5.76L364.54-5.76L364.54-5.76Q364.54-9.02 359.04-12.48L359.04-12.48L359.04-12.48Q354.56-15.42 353.54-16.58L353.54-16.58L353.54-16.58Q351.81-18.62 351.81-21.18L351.81-21.18L351.81-21.18Q351.81-23.74 353.02-26.18L353.02-26.18L353.02-26.18Q354.24-28.61 356.48-30.34L356.48-30.34L356.48-30.34Q361.15-33.92 369.28-33.92L369.28-33.92L369.28-33.92Q373.44-33.92 375.90-32.26L375.90-32.26L375.90-32.26Q378.37-30.59 378.37-27.78L378.37-27.78L378.37-27.78Q378.37-24.96 376.67-23.36L376.67-23.36L376.67-23.36Q374.98-21.76 371.90-21.76L371.90-21.76L371.90-21.76Q369.79-21.76 368.77-22.46ZM381.76-6.40L381.76-6.40L381.76-6.40Q381.76-8.13 382.66-12.48L382.66-12.48L386.05-29.76L382.27-29.76L382.53-31.68L382.53-31.68Q390.21-33.98 397.63-39.62L397.63-39.62L400.70-39.62L399.17-32.64L404.16-32.64L403.58-29.76L398.66-29.76L395.39-12.48L395.39-12.48Q394.56-8.51 394.56-7.17L394.56-7.17L394.56-7.17Q394.56-4.10 397.25-3.46L397.25-3.46L397.25-3.46Q396.61-1.28 394.30 0L394.30 0L394.30 0Q392.00 1.28 388.74 1.28L388.74 1.28L388.74 1.28Q385.47 1.28 383.62-0.77L383.62-0.77L383.62-0.77Q381.76-2.82 381.76-6.40ZM429.50-10.82L429.50-10.82L429.50-10.82Q431.10-9.73 431.10-7.33L431.10-7.33L431.10-7.33Q431.10-4.93 429.89-3.39L429.89-3.39L429.89-3.39Q428.67-1.86 426.69-0.83L426.69-0.83L426.69-0.83Q422.59 1.28 418.18 1.28L418.18 1.28L418.18 1.28Q413.76 1.28 411.17 0.32L411.17 0.32L411.17 0.32Q408.58-0.64 406.85-2.43L406.85-2.43L406.85-2.43Q403.46-5.82 403.46-12.03L403.46-12.03L403.46-12.03Q403.46-21.70 408.70-27.58L408.70-27.58L408.70-27.58Q414.34-33.92 424.13-33.92L424.13-33.92L424.13-33.92Q430.21-33.92 433.22-31.36L433.22-31.36L433.22-31.36Q435.46-29.44 435.46-26.30L435.46-26.30L435.46-26.30Q435.46-15.04 416-15.04L416-15.04L416-15.04Q415.74-13.38 415.74-11.97L415.74-11.97L415.74-11.97Q415.74-9.02 417.06-7.90L417.06-7.90L417.06-7.90Q418.37-6.78 420.80-6.78L420.80-6.78L420.80-6.78Q423.23-6.78 425.82-7.90L425.82-7.90L425.82-7.90Q428.42-9.02 429.50-10.82ZM416.45-17.79L416.45-17.79L416.45-17.79Q420.99-17.79 423.62-20.61L423.62-20.61L423.62-20.61Q426.24-23.30 426.24-27.58L426.24-27.58L426.24-27.58Q426.24-29.06 425.70-29.86L425.70-29.86L425.70-29.86Q425.15-30.66 424.06-30.66L424.06-30.66L424.06-30.66Q422.98-30.66 422.05-30.24L422.05-30.24L422.05-30.24Q421.12-29.82 420.16-28.42L420.16-28.42L420.16-28.42Q417.79-25.22 416.45-17.79ZM457.66-17.98L457.66-17.98L457.66-17.98Q459.97-22.08 459.97-26.24L459.97-26.24L459.97-26.24Q459.97-28.99 457.98-28.99L457.98-28.99L457.98-28.99Q456.45-28.99 454.85-26.37L454.85-26.37L454.85-26.37Q453.18-23.74 452.67-20.35L452.67-20.35L449.34 0L436.10 1.28L442.62-32.64L453.18-33.92L452.03-27.46L452.03-27.46Q455.17-33.92 462.21-33.92L462.21-33.92L462.21-33.92Q465.92-33.92 467.94-32L467.94-32L467.94-32Q469.95-30.08 469.95-26.14L469.95-26.14L469.95-26.14Q469.95-22.21 467.36-19.71L467.36-19.71L467.36-19.71Q464.77-17.22 460.35-17.22L460.35-17.22L460.35-17.22Q458.43-17.22 457.66-17.98ZM490.11-22.46L490.11-22.46L490.11-22.46Q491.01-24.83 491.01-26.88L491.01-26.88L491.01-26.88Q491.01-30.66 487.94-30.66L487.94-30.66L487.94-30.66Q486.34-30.66 485.02-29.22L485.02-29.22L485.02-29.22Q483.71-27.78 483.71-25.98L483.71-25.98L483.71-25.98Q483.71-24.70 484.74-23.68L484.74-23.68L484.74-23.68Q486.21-22.27 489.98-19.97L489.98-19.97L489.98-19.97Q493.76-17.66 495.20-15.78L495.20-15.78L495.20-15.78Q496.64-13.89 496.64-11.30L496.64-11.30L496.64-11.30Q496.64-8.70 495.39-6.34L495.39-6.34L495.39-6.34Q494.14-3.97 491.90-2.30L491.90-2.30L491.90-2.30Q487.10 1.28 479.42 1.28L479.42 1.28L479.42 1.28Q475.26 1.28 472.06-0.90L472.06-0.90L472.06-0.90Q468.86-3.01 468.86-5.50L468.86-5.50L468.86-5.50Q468.86-8 470.69-9.47L470.69-9.47L470.69-9.47Q472.51-10.94 475.20-10.94L475.20-10.94L475.20-10.94Q477.89-10.94 479.55-9.92L479.55-9.92L479.55-9.92Q478.72-7.81 478.72-6.40L478.72-6.40L478.72-6.40Q478.72-2.18 482.30-2.18L482.30-2.18L482.30-2.18Q483.84-2.18 484.86-3.14L484.86-3.14L484.86-3.14Q485.89-4.10 485.89-5.76L485.89-5.76L485.89-5.76Q485.89-9.02 480.38-12.48L480.38-12.48L480.38-12.48Q475.90-15.42 474.88-16.58L474.88-16.58L474.88-16.58Q473.15-18.62 473.15-21.18L473.15-21.18L473.15-21.18Q473.15-23.74 474.37-26.18L474.37-26.18L474.37-26.18Q475.58-28.61 477.82-30.34L477.82-30.34L477.82-30.34Q482.50-33.92 490.62-33.92L490.62-33.92L490.62-33.92Q494.78-33.92 497.25-32.26L497.25-32.26L497.25-32.26Q499.71-30.59 499.71-27.78L499.71-27.78L499.71-27.78Q499.71-24.96 498.02-23.36L498.02-23.36L498.02-23.36Q496.32-21.76 493.25-21.76L493.25-21.76L493.25-21.76Q491.14-21.76 490.11-22.46Z" fill="#f00" stroke="#0f0" stroke-width="1.8"></path></g></g><g><g transform="translate(-0.06509780883789062, 104.44000434875488)"><path d="M29.18 1.28L29.18 1.28L29.18 1.28Q20.99 1.28 20.22-10.37L20.22-10.37L9.22-10.37L9.22-10.37Q7.94-7.42 7.04-4.86L7.04-4.86L5.38 0L-3.58 0L16.58-42.24L30.34-42.24L33.02-11.14L33.02-11.14Q33.66-4.42 36.22-2.43L36.22-2.43L36.22-2.43Q34.37 1.28 29.18 1.28ZM14.72-23.17L11.20-15.04L20.03-15.04L19.26-31.49L19.26-33.22L14.72-23.17ZM55.23-3.52L55.23-3.52L55.23-3.52Q53.25 1.28 46.91 1.28L46.91 1.28L46.91 1.28Q43.71 1.28 41.66-0.96L41.66-0.96L41.66-0.96Q40-2.82 40-4.93L40-4.93L40-4.93Q40-9.73 42.24-20.22L42.24-20.22L46.91-44.80L59.90-46.08L53.70-13.70L53.70-13.70Q52.61-8.96 52.61-7.30L52.61-7.30L52.61-7.30Q52.61-3.65 55.23-3.52ZM75.97-3.52L75.97-3.52L75.97-3.52Q73.98 1.28 67.65 1.28L67.65 1.28L67.65 1.28Q64.45 1.28 62.40-0.96L62.40-0.96L62.40-0.96Q60.74-2.82 60.74-4.93L60.74-4.93L60.74-4.93Q60.74-9.73 62.98-20.22L62.98-20.22L67.65-44.80L80.64-46.08L74.43-13.70L74.43-13.70Q73.34-8.96 73.34-7.30L73.34-7.30L73.34-7.30Q73.34-3.65 75.97-3.52ZM107.84 0L93.89 0L102.02-42.24L116.10-42.24L107.84 0ZM144.58 1.28L144.58 1.28L144.58 1.28Q136.83 1.28 136.83-4.74L136.83-4.74L136.83-4.74Q136.90-6.40 137.41-9.22L137.41-9.22L138.56-15.10L138.56-15.10Q140.29-23.42 140.29-25.28L140.29-25.28L140.29-25.28Q140.29-28.99 138.11-28.99L138.11-28.99L138.11-28.99Q134.46-28.99 132.54-19.46L132.54-19.46L128.77 0L115.90 1.28L122.56-32.70L133.06-33.92L132.03-27.65L132.03-27.65Q135.04-33.92 144.26-33.92L144.26-33.92L144.26-33.92Q148.74-33.92 150.62-32.03L150.62-32.03L150.62-32.03Q152.51-30.14 152.51-25.92L152.51-25.92L152.51-25.92Q152.51-21.95 150.46-12.67L150.46-12.67L150.46-12.67Q149.50-8.51 149.50-6.94L149.50-6.94L149.50-6.94Q149.50-5.38 150.37-4.48L150.37-4.48L150.37-4.48Q151.23-3.58 152.51-3.46L152.51-3.46L152.51-3.46Q151.87-1.28 149.66 0L149.66 0L149.66 0Q147.46 1.28 144.58 1.28ZM204.22-13.25L204.22-13.25L204.22-13.25Q205.89-12.03 205.89-9.44L205.89-9.44L205.89-9.44Q205.89-6.85 204.77-5.02L204.77-5.02L204.77-5.02Q203.65-3.20 201.47-1.79L201.47-1.79L201.47-1.79Q196.80 1.22 188.64 1.22L188.64 1.22L188.64 1.22Q180.48 1.22 176.03-3.04L176.03-3.04L176.03-3.04Q171.58-7.30 171.58-14.85L171.58-14.85L171.58-14.85Q171.58-25.54 177.15-33.66L177.15-33.66L177.15-33.66Q181.38-39.68 188.93-42.24L188.93-42.24L188.93-42.24Q192.83-43.52 196.67-43.52L196.67-43.52L196.67-43.52Q200.51-43.52 202.88-43.01L202.88-43.01L202.88-43.01Q205.25-42.50 207.04-41.47L207.04-41.47L207.04-41.47Q210.94-39.23 210.94-35.65L210.94-35.65L210.94-35.65Q210.94-32.38 207.87-29.95L207.87-29.95L207.87-29.95Q205.06-27.78 202.75-27.78L202.75-27.78L202.75-27.78Q200.45-27.78 199.49-28.10L199.49-28.10L199.49-28.10Q199.74-30.40 199.74-31.90L199.74-31.90L199.74-31.90Q199.74-33.41 199.68-34.50L199.68-34.50L199.68-34.50Q199.62-35.58 199.30-36.61L199.30-36.61L199.30-36.61Q198.66-38.98 196.70-38.98L196.70-38.98L196.70-38.98Q194.75-38.98 192.80-37.15L192.80-37.15L192.80-37.15Q190.85-35.33 189.18-32.26L189.18-32.26L189.18-32.26Q185.41-25.28 185.41-17.02L185.41-17.02L185.41-17.02Q185.41-13.06 187.65-10.78L187.65-10.78L187.65-10.78Q189.89-8.51 194.69-8.51L194.69-8.51L194.69-8.51Q198.27-8.51 201.66-10.88L201.66-10.88L201.66-10.88Q203.14-11.90 204.22-13.25ZM213.98-1.92L213.98-1.92L213.98-1.92Q212.48-3.58 211.81-6.21L211.81-6.21L211.81-6.21Q211.14-8.83 211.14-13.12L211.14-13.12L211.14-13.12Q211.14-17.41 212.61-21.31L212.61-21.31L212.61-21.31Q214.08-25.22 216.77-28.03L216.77-28.03L216.77-28.03Q222.27-33.92 231.36-33.92L231.36-33.92L231.36-33.92Q234.62-33.92 236.99-32.83L236.99-32.83L247.94-33.92L243.20-8.96L243.20-8.96Q243.01-8.19 243.01-6.78L243.01-6.78L243.01-6.78Q243.01-5.38 243.87-4.48L243.87-4.48L243.87-4.48Q244.74-3.58 246.02-3.46L246.02-3.46L246.02-3.46Q245.38-1.28 243.04 0L243.04 0L243.04 0Q240.70 1.28 238.08 1.28L238.08 1.28L238.08 1.28Q235.46 1.28 233.70 0.29L233.70 0.29L233.70 0.29Q231.94-0.70 231.42-2.37L231.42-2.37L231.42-2.37Q230.40-0.77 228.22 0.26L228.22 0.26L228.22 0.26Q226.05 1.28 223.14 1.28L223.14 1.28L223.14 1.28Q220.22 1.28 217.86 0.51L217.86 0.51L217.86 0.51Q215.49-0.26 213.98-1.92ZM227.49-27.90L227.49-27.90L227.49-27.90Q226.75-26.75 226.11-24.80L226.11-24.80L226.11-24.80Q225.47-22.85 224.42-17.63L224.42-17.63L224.42-17.63Q223.36-12.42 223.36-8.70L223.36-8.70L223.36-8.70Q223.36-4.99 223.94-3.90L223.94-3.90L223.94-3.90Q224.51-2.82 225.54-2.82L225.54-2.82L225.54-2.82Q227.58-2.82 229.09-4.77L229.09-4.77L229.09-4.77Q230.59-6.72 231.17-10.18L231.17-10.18L234.56-28.93L234.56-28.93Q233.22-30.08 231.65-30.08L231.65-30.08L231.65-30.08Q230.08-30.08 229.15-29.57L229.15-29.57L229.15-29.57Q228.22-29.06 227.49-27.90ZM297.47 1.28L297.47 1.28L297.47 1.28Q289.73 1.28 289.73-4.74L289.73-4.74L289.73-4.74Q289.73-7.36 290.85-12.45L290.85-12.45L290.85-12.45Q291.97-17.54 292.35-19.58L292.35-19.58L292.35-19.58Q293.25-24.26 293.25-25.73L293.25-25.73L293.25-25.73Q293.25-28.99 290.82-28.99L290.82-28.99L290.82-28.99Q289.22-28.99 287.68-26.78L287.68-26.78L287.68-26.78Q286.14-24.58 285.44-20.16L285.44-20.16L281.47 0L268.99 1.28L272.45-16.13L272.45-16.13Q273.02-19.01 273.54-22.27L273.54-22.27L273.54-22.27Q274.05-25.54 274.05-26.05L274.05-26.05L274.05-26.05Q274.05-28.99 271.87-28.99L271.87-28.99L271.87-28.99Q270.40-28.99 268.80-26.82L268.80-26.82L268.80-26.82Q267.20-24.64 266.30-20.16L266.30-20.16L262.40 0L249.79 1.28L256.51-32.64L266.94-33.92L265.86-27.46L265.86-27.46Q267.52-30.91 270.59-32.42L270.59-32.42L270.59-32.42Q273.66-33.92 278.46-33.92L278.46-33.92L278.46-33.92Q281.22-33.92 283.01-32.58L283.01-32.58L283.01-32.58Q284.80-31.23 285.38-29.06L285.38-29.06L285.38-29.06Q286.46-31.30 289.25-32.61L289.25-32.61L289.25-32.61Q292.03-33.92 295.46-33.92L295.46-33.92L295.46-33.92Q298.88-33.92 300.58-33.18L300.58-33.18L300.58-33.18Q302.27-32.45 303.30-31.23L303.30-31.23L303.30-31.23Q305.02-28.99 305.02-24.90L305.02-24.90L305.02-24.90Q305.02-20.86 303.30-12.48L303.30-12.48L303.30-12.48Q302.40-8.38 302.40-6.88L302.40-6.88L302.40-6.88Q302.40-5.38 303.26-4.48L303.26-4.48L303.26-4.48Q304.13-3.58 305.41-3.46L305.41-3.46L305.41-3.46Q304.77-1.28 302.56 0L302.56 0L302.56 0Q300.35 1.28 297.47 1.28ZM340.16-4.38L340.16-4.38L340.16-4.38Q337.47-1.66 333.79-0.19L333.79-0.19L333.79-0.19Q330.11 1.28 326.46 1.28L326.46 1.28L326.46 1.28Q322.82 1.28 321.54 0.64L321.54 0.64L319.55 11.52L306.56 12.80L315.39-32.64L325.82-33.73L324.99-29.31L324.99-29.31Q327.68-33.86 333.25-33.86L333.25-33.86L333.25-33.86Q339.52-33.86 342.85-29.82L342.85-29.82L342.85-29.82Q345.79-26.18 345.79-20.61L345.79-20.61L345.79-20.61Q345.79-15.04 344.32-11.07L344.32-11.07L344.32-11.07Q342.85-7.10 340.16-4.38ZM325.70-22.34L322.30-3.58L322.30-3.58Q323.65-2.43 325.31-2.43L325.31-2.43L325.31-2.43Q326.98-2.43 327.94-3.07L327.94-3.07L327.94-3.07Q328.90-3.71 329.60-4.99L329.60-4.99L329.60-4.99Q331.52-8.45 333.06-18.94L333.06-18.94L333.06-18.94Q333.50-22.02 333.50-25.02L333.50-25.02L333.50-25.02Q333.50-28.03 332.83-28.99L332.83-28.99L332.83-28.99Q332.16-29.95 330.88-29.95L330.88-29.95L330.88-29.95Q326.98-29.95 325.70-22.34L325.70-22.34ZM368.77-22.46L368.77-22.46L368.77-22.46Q369.66-24.83 369.66-26.88L369.66-26.88L369.66-26.88Q369.66-30.66 366.59-30.66L366.59-30.66L366.59-30.66Q364.99-30.66 363.68-29.22L363.68-29.22L363.68-29.22Q362.37-27.78 362.37-25.98L362.37-25.98L362.37-25.98Q362.37-24.70 363.39-23.68L363.39-23.68L363.39-23.68Q364.86-22.27 368.64-19.97L368.64-19.97L368.64-19.97Q372.42-17.66 373.86-15.78L373.86-15.78L373.86-15.78Q375.30-13.89 375.30-11.30L375.30-11.30L375.30-11.30Q375.30-8.70 374.05-6.34L374.05-6.34L374.05-6.34Q372.80-3.97 370.56-2.30L370.56-2.30L370.56-2.30Q365.76 1.28 358.08 1.28L358.08 1.28L358.08 1.28Q353.92 1.28 350.72-0.90L350.72-0.90L350.72-0.90Q347.52-3.01 347.52-5.50L347.52-5.50L347.52-5.50Q347.52-8 349.34-9.47L349.34-9.47L349.34-9.47Q351.17-10.94 353.86-10.94L353.86-10.94L353.86-10.94Q356.54-10.94 358.21-9.92L358.21-9.92L358.21-9.92Q357.38-7.81 357.38-6.40L357.38-6.40L357.38-6.40Q357.38-2.18 360.96-2.18L360.96-2.18L360.96-2.18Q362.50-2.18 363.52-3.14L363.52-3.14L363.52-3.14Q364.54-4.10 364.54-5.76L364.54-5.76L364.54-5.76Q364.54-9.02 359.04-12.48L359.04-12.48L359.04-12.48Q354.56-15.42 353.54-16.58L353.54-16.58L353.54-16.58Q351.81-18.62 351.81-21.18L351.81-21.18L351.81-21.18Q351.81-23.74 353.02-26.18L353.02-26.18L353.02-26.18Q354.24-28.61 356.48-30.34L356.48-30.34L356.48-30.34Q361.15-33.92 369.28-33.92L369.28-33.92L369.28-33.92Q373.44-33.92 375.90-32.26L375.90-32.26L375.90-32.26Q378.37-30.59 378.37-27.78L378.37-27.78L378.37-27.78Q378.37-24.96 376.67-23.36L376.67-23.36L376.67-23.36Q374.98-21.76 371.90-21.76L371.90-21.76L371.90-21.76Q369.79-21.76 368.77-22.46ZM381.76-6.40L381.76-6.40L381.76-6.40Q381.76-8.13 382.66-12.48L382.66-12.48L386.05-29.76L382.27-29.76L382.53-31.68L382.53-31.68Q390.21-33.98 397.63-39.62L397.63-39.62L400.70-39.62L399.17-32.64L404.16-32.64L403.58-29.76L398.66-29.76L395.39-12.48L395.39-12.48Q394.56-8.51 394.56-7.17L394.56-7.17L394.56-7.17Q394.56-4.10 397.25-3.46L397.25-3.46L397.25-3.46Q396.61-1.28 394.30 0L394.30 0L394.30 0Q392.00 1.28 388.74 1.28L388.74 1.28L388.74 1.28Q385.47 1.28 383.62-0.77L383.62-0.77L383.62-0.77Q381.76-2.82 381.76-6.40ZM429.50-10.82L429.50-10.82L429.50-10.82Q431.10-9.73 431.10-7.33L431.10-7.33L431.10-7.33Q431.10-4.93 429.89-3.39L429.89-3.39L429.89-3.39Q428.67-1.86 426.69-0.83L426.69-0.83L426.69-0.83Q422.59 1.28 418.18 1.28L418.18 1.28L418.18 1.28Q413.76 1.28 411.17 0.32L411.17 0.32L411.17 0.32Q408.58-0.64 406.85-2.43L406.85-2.43L406.85-2.43Q403.46-5.82 403.46-12.03L403.46-12.03L403.46-12.03Q403.46-21.70 408.70-27.58L408.70-27.58L408.70-27.58Q414.34-33.92 424.13-33.92L424.13-33.92L424.13-33.92Q430.21-33.92 433.22-31.36L433.22-31.36L433.22-31.36Q435.46-29.44 435.46-26.30L435.46-26.30L435.46-26.30Q435.46-15.04 416-15.04L416-15.04L416-15.04Q415.74-13.38 415.74-11.97L415.74-11.97L415.74-11.97Q415.74-9.02 417.06-7.90L417.06-7.90L417.06-7.90Q418.37-6.78 420.80-6.78L420.80-6.78L420.80-6.78Q423.23-6.78 425.82-7.90L425.82-7.90L425.82-7.90Q428.42-9.02 429.50-10.82ZM416.45-17.79L416.45-17.79L416.45-17.79Q420.99-17.79 423.62-20.61L423.62-20.61L423.62-20.61Q426.24-23.30 426.24-27.58L426.24-27.58L426.24-27.58Q426.24-29.06 425.70-29.86L425.70-29.86L425.70-29.86Q425.15-30.66 424.06-30.66L424.06-30.66L424.06-30.66Q422.98-30.66 422.05-30.24L422.05-30.24L422.05-30.24Q421.12-29.82 420.16-28.42L420.16-28.42L420.16-28.42Q417.79-25.22 416.45-17.79ZM457.66-17.98L457.66-17.98L457.66-17.98Q459.97-22.08 459.97-26.24L459.97-26.24L459.97-26.24Q459.97-28.99 457.98-28.99L457.98-28.99L457.98-28.99Q456.45-28.99 454.85-26.37L454.85-26.37L454.85-26.37Q453.18-23.74 452.67-20.35L452.67-20.35L449.34 0L436.10 1.28L442.62-32.64L453.18-33.92L452.03-27.46L452.03-27.46Q455.17-33.92 462.21-33.92L462.21-33.92L462.21-33.92Q465.92-33.92 467.94-32L467.94-32L467.94-32Q469.95-30.08 469.95-26.14L469.95-26.14L469.95-26.14Q469.95-22.21 467.36-19.71L467.36-19.71L467.36-19.71Q464.77-17.22 460.35-17.22L460.35-17.22L460.35-17.22Q458.43-17.22 457.66-17.98ZM490.11-22.46L490.11-22.46L490.11-22.46Q491.01-24.83 491.01-26.88L491.01-26.88L491.01-26.88Q491.01-30.66 487.94-30.66L487.94-30.66L487.94-30.66Q486.34-30.66 485.02-29.22L485.02-29.22L485.02-29.22Q483.71-27.78 483.71-25.98L483.71-25.98L483.71-25.98Q483.71-24.70 484.74-23.68L484.74-23.68L484.74-23.68Q486.21-22.27 489.98-19.97L489.98-19.97L489.98-19.97Q493.76-17.66 495.20-15.78L495.20-15.78L495.20-15.78Q496.64-13.89 496.64-11.30L496.64-11.30L496.64-11.30Q496.64-8.70 495.39-6.34L495.39-6.34L495.39-6.34Q494.14-3.97 491.90-2.30L491.90-2.30L491.90-2.30Q487.10 1.28 479.42 1.28L479.42 1.28L479.42 1.28Q475.26 1.28 472.06-0.90L472.06-0.90L472.06-0.90Q468.86-3.01 468.86-5.50L468.86-5.50L468.86-5.50Q468.86-8 470.69-9.47L470.69-9.47L470.69-9.47Q472.51-10.94 475.20-10.94L475.20-10.94L475.20-10.94Q477.89-10.94 479.55-9.92L479.55-9.92L479.55-9.92Q478.72-7.81 478.72-6.40L478.72-6.40L478.72-6.40Q478.72-2.18 482.30-2.18L482.30-2.18L482.30-2.18Q483.84-2.18 484.86-3.14L484.86-3.14L484.86-3.14Q485.89-4.10 485.89-5.76L485.89-5.76L485.89-5.76Q485.89-9.02 480.38-12.48L480.38-12.48L480.38-12.48Q475.90-15.42 474.88-16.58L474.88-16.58L474.88-16.58Q473.15-18.62 473.15-21.18L473.15-21.18L473.15-21.18Q473.15-23.74 474.37-26.18L474.37-26.18L474.37-26.18Q475.58-28.61 477.82-30.34L477.82-30.34L477.82-30.34Q482.50-33.92 490.62-33.92L490.62-33.92L490.62-33.92Q494.78-33.92 497.25-32.26L497.25-32.26L497.25-32.26Q499.71-30.59 499.71-27.78L499.71-27.78L499.71-27.78Q499.71-24.96 498.02-23.36L498.02-23.36L498.02-23.36Q496.32-21.76 493.25-21.76L493.25-21.76L493.25-21.76Q491.14-21.76 490.11-22.46Z" fill="none" stroke="#fff" stroke-width="2.1"></path></g></g></g><style>text {
  font-size: 64px;
  font-family: Arial Black;
  dominant-baseline: central;
  text-anchor: middle;
}</style></svg>